<?xml version="1.0" encoding="utf-8"?>
<!-- Generator: Adobe Illustrator 18.1.1, SVG Export Plug-In . SVG Version: 6.00 Build 0)  -->
<!DOCTYPE svg PUBLIC "-//W3C//DTD SVG 1.1//EN" "http://www.w3.org/Graphics/SVG/1.1/DTD/svg11.dtd">
<svg version="1.1" id="Layer_1" xmlns="http://www.w3.org/2000/svg" xmlns:xlink="http://www.w3.org/1999/xlink" x="0px" y="0px"
	 viewBox="0 0 623.8 205.8" enable-background="new 0 0 623.8 205.8" xml:space="preserve">
<path fill="#FFFFFF" d="M371.5,120.9v16.8H323V49.7h16.8v71.3H371.5z M439.9,93.7c9.8,4.1,9.8,17.8,9.8,17.8
	c0,26.2-29.7,26.2-29.7,26.2h-29.8v-88H420c0,0,29.7,0,29.7,26.1C449.7,87.2,444.3,91.8,439.9,93.7z M406.9,85.3H420
	c0,0,12.9,0,12.9-9.4c0-9.5-12.9-9.5-12.9-9.5h-13.1V85.3z M432.9,111.5c0-9.4-12.9-9.4-12.9-9.4h-13.1v19H420
	C420,121.1,432.9,121.1,432.9,111.5z M499.1,102h-9.7v35.8h-16.8V49.7h29.8c0,0,29.8,0,29.8,26.1c0,13.7-8.4,20.2-16.2,23.4
	c5.7,12.2,12.2,26.5,17.8,38.6h-18.3L499.1,102z M489.4,85.3h13c0,0,13.1,0,13.1-9.5c0-9.4-13.1-9.4-13.1-9.4h-13V85.3z M623.8,49.7
	l-33.4,46.7v41.4h-16.8V96.4c-10.4-14.9-22.7-31.8-33.2-46.7h20.4l21.4,29.5l21.1-29.5H623.8z"/>
<g>
	<g>
		<polygon fill="#FFFFFF" points="139.2,205.8 0,137 0,90.2 145.8,0 278,63.8 278,77.9 139.2,163.2 34.6,111.9 34.8,104 
			138.8,155.2 271,74 271,68.2 146.2,8 7,94.1 7,132.6 138.8,197.8 276.4,113.4 280.3,119.4 		"/>
	</g>
	<g>
		<polygon fill="#FFFFFF" points="267.1,108.9 284.2,111.8 281.4,129.3 276.5,128.5 278.5,115.9 266.3,113.8 		"/>
	</g>
</g>
</svg>
