<?xml version="1.0" encoding="UTF-8" standalone="no"?>
<!-- Generator: Adobe Illustrator 18.1.1, SVG Export Plug-In . SVG Version: 6.00 Build 0)  -->

<svg
   xmlns:dc="http://purl.org/dc/elements/1.1/"
   xmlns:cc="http://creativecommons.org/ns#"
   xmlns:rdf="http://www.w3.org/1999/02/22-rdf-syntax-ns#"
   xmlns:svg="http://www.w3.org/2000/svg"
   xmlns="http://www.w3.org/2000/svg"
   xmlns:xlink="http://www.w3.org/1999/xlink"
   xmlns:sodipodi="http://sodipodi.sourceforge.net/DTD/sodipodi-0.dtd"
   xmlns:inkscape="http://www.inkscape.org/namespaces/inkscape"
   version="1.1"
   id="Layer_1"
   x="0px"
   y="0px"
   viewBox="0 0 623.8 205.8"
   enable-background="new 0 0 623.8 205.8"
   xml:space="preserve"
   inkscape:version="0.91 r13725"
   sodipodi:docname="lbry-dark.svg"
   inkscape:export-filename="C:\Users\jeremy\Desktop\lbry-dark-1600x528.png"
   inkscape:export-xdpi="230.84322"
   inkscape:export-ydpi="230.84322"><metadata
     id="metadata3353"><rdf:RDF><cc:Work
         rdf:about=""><dc:format>image/svg+xml</dc:format><dc:type
           rdf:resource="http://purl.org/dc/dcmitype/StillImage" /><dc:title></dc:title></cc:Work></rdf:RDF></metadata><defs
     id="defs3351"><linearGradient
       inkscape:collect="always"
       id="linearGradient4227"><stop
         style="stop-color:#006149;stop-opacity:1;"
         offset="0"
         id="stop4229" /><stop
         style="stop-color:#2f4246;stop-opacity:1"
         offset="1"
         id="stop4231" /></linearGradient><linearGradient
       inkscape:collect="always"
       xlink:href="#linearGradient4227"
       id="linearGradient4235"
       x1="540.23517"
       y1="100.10181"
       x2="0"
       y2="98.295006"
       gradientUnits="userSpaceOnUse" /><linearGradient
       inkscape:collect="always"
       xlink:href="#linearGradient4227"
       id="linearGradient4151"
       gradientUnits="userSpaceOnUse"
       x1="540.23517"
       y1="100.10181"
       x2="0"
       y2="98.295006" /><linearGradient
       inkscape:collect="always"
       xlink:href="#linearGradient4227"
       id="linearGradient4157"
       gradientUnits="userSpaceOnUse"
       x1="540.23517"
       y1="100.10181"
       x2="0"
       y2="98.295006" /><linearGradient
       inkscape:collect="always"
       xlink:href="#linearGradient4227"
       id="linearGradient4155"
       gradientUnits="userSpaceOnUse"
       x1="540.23517"
       y1="100.10181"
       x2="0"
       y2="98.295006" /><linearGradient
       inkscape:collect="always"
       xlink:href="#linearGradient4227"
       id="linearGradient4279"
       gradientUnits="userSpaceOnUse"
       x1="540.23517"
       y1="100.10181"
       x2="0"
       y2="98.295006" /></defs><sodipodi:namedview
     pagecolor="#ffffff"
     bordercolor="#666666"
     borderopacity="1"
     objecttolerance="10"
     gridtolerance="10"
     guidetolerance="10"
     inkscape:pageopacity="0"
     inkscape:pageshadow="2"
     inkscape:window-width="1536"
     inkscape:window-height="803"
     id="namedview3349"
     showgrid="false"
     inkscape:zoom="1.5654288"
     inkscape:cx="143.87811"
     inkscape:cy="86.551439"
     inkscape:window-x="-8"
     inkscape:window-y="-8"
     inkscape:window-maximized="1"
     inkscape:current-layer="Layer_1" /><path
     fill="#FFFFFF"
     d="M371.5,120.9v16.8H323V49.7h16.8v71.3H371.5z M439.9,93.7c9.8,4.1,9.8,17.8,9.8,17.8  c0,26.2-29.7,26.2-29.7,26.2h-29.8v-88H420c0,0,29.7,0,29.7,26.1C449.7,87.2,444.3,91.8,439.9,93.7z M406.9,85.3H420  c0,0,12.9,0,12.9-9.4c0-9.5-12.9-9.5-12.9-9.5h-13.1V85.3z M432.9,111.5c0-9.4-12.9-9.4-12.9-9.4h-13.1v19H420  C420,121.1,432.9,121.1,432.9,111.5z M499.1,102h-9.7v35.8h-16.8V49.7h29.8c0,0,29.8,0,29.8,26.1c0,13.7-8.4,20.2-16.2,23.4  c5.7,12.2,12.2,26.5,17.8,38.6h-18.3L499.1,102z M489.4,85.3h13c0,0,13.1,0,13.1-9.5c0-9.4-13.1-9.4-13.1-9.4h-13V85.3z M623.8,49.7  l-33.4,46.7v41.4h-16.8V96.4c-10.4-14.9-22.7-31.8-33.2-46.7h20.4l21.4,29.5l21.1-29.5H623.8z"
     id="path3337"
     style="fill:url(#linearGradient4235);fill-opacity:1" /><g
     transform="translate(2.28723,0.27870738)"
     id="g4167"><g
       transform="translate(-2,0)"
       id="g3341"
       style="fill:url(#linearGradient4279);fill-opacity:1"><polygon
         points="278,63.8 278,77.9 139.2,163.2 34.6,111.9 34.8,104 138.8,155.2 271,74 271,68.2 146.2,8 7,94.1 7,132.6 138.8,197.8 276.4,113.4 280.3,119.4 139.2,205.8 0,137 0,90.2 145.8,0 "
         id="polygon3343"
         style="fill:url(#linearGradient4151);fill-opacity:1" /></g><g
       transform="translate(-2.3,0.30000305)"
       id="g3345"
       style="fill:url(#linearGradient4157);fill-opacity:1"><polygon
         points="276.5,128.5 278.5,115.9 266.3,113.8 267.1,108.9 284.2,111.8 281.4,129.3 "
         id="polygon3347"
         style="fill:url(#linearGradient4155);fill-opacity:1" /></g></g></svg>