<?xml version="1.0" encoding="utf-8"?>
<!-- Generator: Adobe Illustrator 20.0.0, SVG Export Plug-In . SVG Version: 6.00 Build 0)  -->
<svg version="1.1" id="Layer_1" xmlns="http://www.w3.org/2000/svg" xmlns:xlink="http://www.w3.org/1999/xlink" x="0px" y="0px"
	 viewBox="0 0 508.2 166.1" style="enable-background:new 0 0 508.2 166.1;" xml:space="preserve">
<style type="text/css">
	.st0{fill:#D62021;}
	.st1{fill:#000005;}
	.st2{fill:#237BBD;}
	.st3{fill:#FFFFFF;}
</style>
<path class="st0" d="M169.8,166.1V0H0v166.1H169.8z"/>
<path class="st1" d="M340.4,166.1V0H169.8v166.1H340.4z"/>
<path class="st2" d="M508.2,166.1V0H340.4v166.1H508.2z"/>
<g transform="translate(-33.03 -23.33)">
	<path class="st3" d="M135.7,151.4v-50.3c0-7.4-1.4-12.8-4.3-16.3s-7.5-5.1-14-5.1c-3.4,0.1-6.6,1-9.6,2.5c-3.1,1.4-5.9,3.6-8,6.3
		v63H79.5V64h14.7l3.8,8.2c5.5-6.4,13.7-9.6,24.6-9.6c10.4,0,18.6,3.1,24.6,9.3s9,14.9,9,26v53.6L135.7,151.4L135.7,151.4z"/>
	<path class="st3" d="M286.5,153.1c13.3,0,23.9-3.9,31.6-11.6s11.6-18.7,11.6-33c0-30.7-13.9-46-41.8-46c-7-0.2-13.8,2.4-18.8,7.3
		V64h-20.4v110.6H269v-25.3C274.5,151.9,280.5,153.2,286.5,153.1L286.5,153.1z M282,79.9c9.4,0,16.1,2.1,20.2,6.3s6.1,11.5,6.1,21.8
		c0,9.7-2.1,16.7-6.1,21.2c-4.1,4.5-10.8,6.7-20.2,6.7c-4.7,0.1-9.3-1.5-12.9-4.5V85.6C272.4,82,277.1,80,282,79.9L282,79.9z"/>
	<path class="st3" d="M481.3,83.1c-3.6-2.3-7.7-3.5-11.9-3.4c-4.7,0-8.9,2.1-12.5,6.4c-3.7,4.4-5.7,10-5.5,15.7v49.6H431V64h20.4
		v8.4c5.7-6.5,13.2-9.8,22.7-9.8c6.9,0,12.2,1.1,15.9,3.2L481.3,83.1L481.3,83.1z"/>
</g>
</svg>
