<?xml version="1.0" encoding="UTF-8"?>
<svg width="631px" height="181px" viewBox="0 0 631 181" version="1.1" xmlns="http://www.w3.org/2000/svg" xmlns:xlink="http://www.w3.org/1999/xlink">
    <!-- Generator: Sketch 50.2 (55047) - http://www.bohemiancoding.com/sketch -->
    <title>CT logo WhiteYellow tag </title>
    <desc>Created with Sketch.</desc>
    <defs></defs>
    <g id="CT-logo-WhiteYellow-tag-" stroke="none" stroke-width="1" fill="none" fill-rule="evenodd">
        <rect id="Rectangle" fill="#1C252A" x="0" y="0" width="631" height="181"></rect>
        <g id="Molecules/Logos/CT-logo-WY-tag" transform="translate(42.000000, 27.000000)">
            <g id="CT-logo-WY-tag" stroke-width="1">
                <g id="Atoms/Icons/logos/CT-W-icon">
                    <g id="Group">
                        <path d="M79.2698565,93.1376147 L56.4797727,103.045872 L56.4797727,102.055046 C52.0863364,103.179399 47.2167262,103.828326 42.6075479,104.036697 C21.173558,103.828326 4.16074286,92.6111588 3.96349282,79.266055 L3.96349282,74.3119266 C11.0028533,84.5459228 25.334301,91.4060086 42.6075479,91.1559633 C48.449539,91.4060086 54.4286805,90.4789699 59.4523924,89.1743119 L61.4341388,84.2201835 C55.4765714,85.9982832 48.9734844,87.2343348 42.6075479,87.1926606 C21.173558,87.2343348 4.16074286,76.0171674 3.96349282,62.4220183 L3.96349282,58.4587156 C11.0028533,67.9210301 25.3034805,74.7811158 42.6075479,74.3119266 C50.3912189,74.7811158 58.0038373,73.1433477 64.4067584,70.3486239 L65.3976316,65.3944954 C59.1441892,68.6935623 51.0384457,70.6094421 42.6075479,70.3486239 C21.173558,70.6094421 4.16074286,59.3922747 3.96349282,45.5779817 L3.96349282,41.6146789 C11.0028533,51.2961373 25.334301,58.1562231 42.6075479,58.4587156 C52.42536,58.1562231 61.7330959,55.5605151 69.3611244,51.5229358 L70.3519976,45.5779817 C63.4282134,50.7090129 53.3191492,54.0154506 42.6075479,54.4954128 C21.173558,54.0154506 4.16074286,42.7982832 3.96349282,28.733945 C4.16074286,15.3579399 21.173558,4.14077253 42.6075479,3.96330275 C55.3841105,4.14077253 67.2499326,8.62145924 74.3154904,15.853211 L75.0035968,17 L80,17.0197348 L79.2698565,15.853211 C72.242824,6.30386266 58.1887593,0 42.6075479,0 C18.8928546,0 0,13.0712446 0,28.733945 L0,29.7247706 L0,80.2568807 C0.832148571,95.5467812 19.2935187,108 42.6075479,108 C58.0038373,108 71.8421599,101.943348 79.2698565,93.1376147 Z" id="Shape" fill="#FFFFFF" fill-rule="nonzero"></path>
                        <path d="M70,128 L78,94 L55,104 L69,45 L42,45 L49,16 L135,16 L128,45 L100,45 L94,61 L125,48 L70,128 Z M84,87 L80,107 L113,57 L86,69 L98,41 L125,41 L130,20 L52,20 L47,41 L74,41 L61,97 L84,87 Z" id="Shape" fill="#FABF2C" fill-rule="nonzero"></path>
                    </g>
                </g>
                <path d="M192.112305,35.4052735 L192.153321,35.5283203 C192.208008,38.7138832 191.237315,41.2089754 189.241211,43.0136719 C187.245108,44.8183684 184.490252,45.7207032 180.976563,45.7207032 C177.394514,45.7207032 174.502941,44.5688592 172.301758,42.2651368 C170.100575,39.9614143 169,36.9843933 169,33.3339844 L169,27.4072266 C169,23.7704897 170.073232,20.7934687 172.219727,18.4760743 C174.366222,16.1586799 177.1826,15 180.668946,15 C184.305683,15 187.149404,15.888663 189.200196,17.6660157 C191.250987,19.4433683 192.249024,21.9452964 192.194336,25.171875 L192.153321,25.2949219 L186.329102,25.2949219 C186.329102,23.3808498 185.867681,21.9555711 184.944825,21.019043 C184.021968,20.0825149 182.59669,19.6142579 180.668946,19.6142579 C178.877921,19.6142579 177.479986,20.335442 176.475098,21.7778321 C175.47021,23.2202221 174.967774,25.0829964 174.967774,27.366211 L174.967774,33.3339844 C174.967774,35.6308709 175.497554,37.503899 176.557129,38.953125 C177.616705,40.402351 179.089835,41.1269532 180.976563,41.1269532 C182.767587,41.1269532 184.104,40.6586961 184.98584,39.722168 C185.867681,38.7856399 186.308594,37.3466894 186.308594,35.4052735 L192.112305,35.4052735 Z M224.997657,33.046875 C224.997657,36.7246278 223.842395,39.7563358 221.531836,42.1420899 C219.221278,44.527844 216.213496,45.7207032 212.508399,45.7207032 C208.816974,45.7207032 205.822864,44.5244261 203.525977,42.131836 C201.229091,39.7392459 200.080665,36.7109559 200.080665,33.046875 L200.080665,27.6738282 C200.080665,24.0234193 201.225673,20.9985472 203.515723,18.5991211 C205.805774,16.1996951 208.789631,15 212.467383,15 C216.17248,15 219.187098,16.1996951 221.511329,18.5991211 C223.835559,20.9985472 224.997657,24.0234193 224.997657,27.6738282 L224.997657,33.046875 Z M219.029883,27.6328125 C219.029883,25.3085822 218.448834,23.4013747 217.286719,21.9111329 C216.124604,20.420891 214.518175,19.6757813 212.467383,19.6757813 C210.443936,19.6757813 208.868268,20.420891 207.740333,21.9111329 C206.612397,23.4013747 206.048438,25.3085822 206.048438,27.6328125 L206.048438,33.046875 C206.048438,35.4121212 206.615815,37.3398363 207.750586,38.8300782 C208.885358,40.32032 210.471279,41.0654297 212.508399,41.0654297 C214.55919,41.0654297 216.158784,40.32032 217.307227,38.8300782 C218.45567,37.3398363 219.029883,35.4121212 219.029883,33.046875 L219.029883,27.6328125 Z M240.533399,45.2900391 L234.545118,45.2900391 L234.545118,15.4306641 L240.533399,15.4306641 L240.533399,45.2900391 Z M274.997852,45.2900391 L269.009571,45.2900391 L256.971485,25.1513672 L256.848438,25.171875 L256.848438,45.2900391 L250.860157,45.2900391 L250.860157,15.4306641 L256.848438,15.4306641 L268.886524,35.5488282 L269.009571,35.5283203 L269.009571,15.4306641 L274.997852,15.4306641 L274.997852,45.2900391 Z M305.114649,20.0449219 L296.583399,20.0449219 L296.583399,45.2900391 L290.595118,45.2900391 L290.595118,20.0449219 L282.186915,20.0449219 L282.186915,15.4306641 L305.114649,15.4306641 L305.114649,20.0449219 Z M329.858399,32.1650391 L318.784181,32.1650391 L318.784181,40.6962891 L331.950196,40.6962891 L331.950196,45.2900391 L312.795899,45.2900391 L312.795899,15.4306641 L331.909181,15.4306641 L331.909181,20.0449219 L318.784181,20.0449219 L318.784181,27.5507813 L329.858399,27.5507813 L329.858399,32.1650391 Z M346.542579,40.6962891 L359.913673,40.6962891 L359.913673,45.2900391 L340.554298,45.2900391 L340.554298,15.4306641 L346.542579,15.4306641 L346.542579,40.6962891 Z M385.354689,32.1650391 L374.28047,32.1650391 L374.28047,40.6962891 L387.446485,40.6962891 L387.446485,45.2900391 L368.292189,45.2900391 L368.292189,15.4306641 L387.40547,15.4306641 L387.40547,20.0449219 L374.28047,20.0449219 L374.28047,27.5507813 L385.354689,27.5507813 L385.354689,32.1650391 Z M418.937306,41.2089844 C418.007614,42.4257874 416.619932,43.4819292 414.77422,44.3774414 C412.928508,45.2729537 410.549625,45.7207032 407.637501,45.7207032 C404.028108,45.7207032 401.075013,44.5859489 398.778126,42.3164063 C396.48124,40.0468637 395.332814,37.1006041 395.332814,33.4775391 L395.332814,27.2431641 C395.332814,23.6337711 396.44706,20.6909294 398.675587,18.4145508 C400.904114,16.1381722 403.768343,15 407.268361,15 C410.918769,15 413.71464,15.8647375 415.656056,17.5942383 C417.597472,19.3237392 418.533986,21.630845 418.465626,24.515625 L418.424611,24.6386719 L412.784962,24.6386719 C412.784962,23.0527265 412.326959,21.8188521 411.410939,20.9370118 C410.494918,20.0551714 409.161924,19.6142579 407.411915,19.6142579 C405.579875,19.6142579 404.103327,20.3217703 402.982228,21.7368164 C401.861128,23.1518626 401.300587,24.9736217 401.300587,27.2021485 L401.300587,33.4775391 C401.300587,35.7334098 401.8748,37.5722586 403.023243,38.9941407 C404.171687,40.4160228 405.709757,41.1269532 407.637501,41.1269532 C409.059383,41.1269532 410.183884,40.9833999 411.011036,40.6962891 C411.838189,40.4091783 412.477343,40.0468772 412.928517,39.609375 L412.928517,33.8261719 L407.186329,33.8261719 L407.186329,29.6835938 L418.937306,29.6835938 L418.937306,41.2089844 Z M434.411525,33.3544922 L434.411525,45.2900391 L428.423243,45.2900391 L428.423243,15.4306641 L438.759181,15.4306641 C442.163495,15.4306641 444.826066,16.2065352 446.746974,17.7583008 C448.667882,19.3100664 449.628322,21.473619 449.628322,24.2490235 C449.628322,25.7802811 449.221587,27.1030218 448.408107,28.2172852 C447.594626,29.3315486 446.408603,30.2304654 444.850001,30.9140625 C446.613682,31.4335964 447.881736,32.3017518 448.6542,33.5185547 C449.426665,34.7353577 449.812892,36.2392489 449.812892,38.0302735 L449.812892,40.2246094 C449.812892,41.058598 449.925684,41.9301713 450.151271,42.8393555 C450.376858,43.7485397 450.763084,44.4218728 451.309962,44.859375 L451.309962,45.2900391 L445.137111,45.2900391 C444.590233,44.8525369 444.238186,44.1279348 444.080958,43.116211 C443.923731,42.1044872 443.845118,41.1269579 443.845118,40.1835938 L443.845118,38.0712891 C443.845118,36.5810473 443.438384,35.4223675 442.624904,34.5952149 C441.811423,33.7680623 440.659579,33.3544922 439.169337,33.3544922 L434.411525,33.3544922 Z M434.411525,28.7402344 L438.656642,28.7402344 C440.338291,28.7402344 441.589255,28.3847692 442.409572,27.6738282 C443.229888,26.9628871 443.64004,25.9101633 443.64004,24.515625 C443.64004,23.1484307 443.22647,22.0615275 442.399318,21.2548829 C441.572165,20.4482382 440.358798,20.0449219 438.759181,20.0449219 L434.411525,20.0449219 L434.411525,28.7402344 Z M475.151369,38.850586 L465.471681,38.850586 L463.461915,45.2900391 L457.207033,45.2900391 L467.276369,15.4306641 L473.408204,15.4306641 L483.436525,45.2900391 L477.181642,45.2900391 L475.151369,38.850586 Z M466.948244,34.1542969 L473.695314,34.1542969 L470.393556,23.6337891 L470.270509,23.6337891 L466.948244,34.1542969 Z M496.6959,34.4619141 L496.6959,45.2900391 L490.707619,45.2900391 L490.707619,15.4306641 L502.13047,15.4306641 C505.562128,15.4306641 508.262296,16.3056554 510.231056,18.0556641 C512.199816,19.8056728 513.184181,22.1093608 513.184181,24.9667969 C513.184181,27.8242331 512.199816,30.1210851 510.231056,31.8574219 C508.262296,33.5937587 505.562128,34.4619141 502.13047,34.4619141 L496.6959,34.4619141 Z M496.6959,29.8476563 L502.13047,29.8476563 C503.798447,29.8476563 505.063083,29.393071 505.924415,28.4838868 C506.785748,27.5747025 507.216408,26.4160227 507.216408,25.0078125 C507.216408,23.5722585 506.789166,22.3862352 505.934669,21.4497071 C505.080173,20.5131789 503.812119,20.0449219 502.13047,20.0449219 L496.6959,20.0449219 L496.6959,29.8476563 Z M546.008009,45.2900391 L540.019728,45.2900391 L540.019728,32.8828125 L527.858595,32.8828125 L527.858595,45.2900391 L521.870314,45.2900391 L521.870314,15.4306641 L527.858595,15.4306641 L527.858595,28.2685547 L540.019728,28.2685547 L540.019728,15.4306641 L546.008009,15.4306641 L546.008009,45.2900391 Z" id="Shape" fill="#FABF2C" fill-rule="nonzero"></path>
            </g>
            <g id="Tag/The-future-of-money-—-white" transform="translate(169.000000, 61.000000)" fill="#FFFFFF">
                <path d="M10.90625,33 L7.171875,33 L7.171875,13.359375 L0.453125,13.359375 L0.453125,10.15625 L17.625,10.15625 L17.625,13.359375 L10.90625,13.359375 L10.90625,33 Z M35.9375,33 L32.25,33 L32.25,22.375 C32.25,21.04166 31.9817735,20.0468783 31.4453125,19.390625 C30.9088515,18.7343717 30.0572975,18.40625 28.890625,18.40625 C27.3489506,18.40625 26.2161495,18.8671829 25.4921875,19.7890625 C24.7682255,20.7109421 24.40625,22.2551975 24.40625,24.421875 L24.40625,33 L20.734375,33 L20.734375,8.6875 L24.40625,8.6875 L24.40625,14.859375 C24.40625,15.8489633 24.3437506,16.9062444 24.21875,18.03125 L24.453125,18.03125 C24.9531275,17.1979125 25.648433,16.5520856 26.5390625,16.09375 C27.429692,15.6354144 28.4687441,15.40625 29.65625,15.40625 C33.8437709,15.40625 35.9375,17.5156039 35.9375,21.734375 L35.9375,33 Z M48.59375,33.3125 C45.9062366,33.3125 43.8046951,32.5286537 42.2890625,30.9609375 C40.7734299,29.3932213 40.015625,27.2343888 40.015625,24.484375 C40.015625,21.6614442 40.718743,19.4427164 42.125,17.828125 C43.531257,16.2135336 45.4635294,15.40625 47.921875,15.40625 C50.2031364,15.40625 52.0052017,16.0989514 53.328125,17.484375 C54.6510483,18.8697986 55.3125,20.7760295 55.3125,23.203125 L55.3125,25.1875 L43.796875,25.1875 C43.8489586,26.8645917 44.3020791,28.1536413 45.15625,29.0546875 C46.0104209,29.9557337 47.2135339,30.40625 48.765625,30.40625 C49.7864634,30.40625 50.7369748,30.3098968 51.6171875,30.1171875 C52.4974002,29.9244782 53.4427033,29.6041689 54.453125,29.15625 L54.453125,32.140625 C53.5572872,32.5677105 52.6510462,32.8697908 51.734375,33.046875 C50.8177037,33.2239592 49.7708392,33.3125 48.59375,33.3125 Z M47.921875,18.1875 C46.7552025,18.1875 45.820316,18.557288 45.1171875,19.296875 C44.414059,20.036462 43.9947923,21.1145762 43.859375,22.53125 L51.703125,22.53125 C51.6822916,21.1041595 51.338545,20.0234412 50.671875,19.2890625 C50.005205,18.5546838 49.0885475,18.1875 47.921875,18.1875 Z M76.46875,18.5 L72.25,18.5 L72.25,33 L68.5625,33 L68.5625,18.5 L65.71875,18.5 L65.71875,16.78125 L68.5625,15.65625 L68.5625,14.53125 C68.5625,12.4895731 69.0416619,10.9765674 70,9.9921875 C70.9583381,9.00780758 72.4218652,8.515625 74.390625,8.515625 C75.6822981,8.515625 76.9531188,8.72916453 78.203125,9.15625 L77.234375,11.9375 C76.3281205,11.6458319 75.4635458,11.5 74.640625,11.5 C73.8072875,11.5 73.2005227,11.7578099 72.8203125,12.2734375 C72.4401023,12.7890651 72.25,13.5624948 72.25,14.59375 L72.25,15.71875 L76.46875,15.71875 L76.46875,18.5 Z M91.59375,33 L91.078125,30.734375 L90.890625,30.734375 C90.3802058,31.5364623 89.6536505,32.1666644 88.7109375,32.625 C87.7682245,33.0833356 86.6927144,33.3125 85.484375,33.3125 C83.3906145,33.3125 81.8281302,32.7916719 80.796875,31.75 C79.7656198,30.7083281 79.25,29.1302189 79.25,27.015625 L79.25,15.71875 L82.953125,15.71875 L82.953125,26.375 C82.953125,27.6979233 83.2239556,28.6901009 83.765625,29.3515625 C84.3072944,30.0130241 85.1562442,30.34375 86.3125,30.34375 C87.8541744,30.34375 88.9869755,29.8828171 89.7109375,28.9609375 C90.4348995,28.0390579 90.796875,26.4948025 90.796875,24.328125 L90.796875,15.71875 L94.484375,15.71875 L94.484375,33 L91.59375,33 Z M106.15625,30.34375 C107.052088,30.34375 107.947912,30.2031264 108.84375,29.921875 L108.84375,32.6875 C108.437498,32.8645842 107.914066,33.0130202 107.273438,33.1328125 C106.632809,33.2526048 105.968753,33.3125 105.28125,33.3125 C101.802066,33.3125 100.0625,31.479185 100.0625,27.8125 L100.0625,18.5 L97.703125,18.5 L97.703125,16.875 L100.234375,15.53125 L101.484375,11.875 L103.75,11.875 L103.75,15.71875 L108.671875,15.71875 L108.671875,18.5 L103.75,18.5 L103.75,27.75 C103.75,28.6354211 103.971352,29.2890604 104.414062,29.7109375 C104.856773,30.1328146 105.437496,30.34375 106.15625,30.34375 Z M124.484375,33 L123.96875,30.734375 L123.78125,30.734375 C123.270831,31.5364623 122.544276,32.1666644 121.601562,32.625 C120.658849,33.0833356 119.583339,33.3125 118.375,33.3125 C116.28124,33.3125 114.718755,32.7916719 113.6875,31.75 C112.656245,30.7083281 112.140625,29.1302189 112.140625,27.015625 L112.140625,15.71875 L115.84375,15.71875 L115.84375,26.375 C115.84375,27.6979233 116.114581,28.6901009 116.65625,29.3515625 C117.197919,30.0130241 118.046869,30.34375 119.203125,30.34375 C120.744799,30.34375 121.877601,29.8828171 122.601562,28.9609375 C123.325524,28.0390579 123.6875,26.4948025 123.6875,24.328125 L123.6875,15.71875 L127.375,15.71875 L127.375,33 L124.484375,33 Z M141.375,15.40625 C142.114587,15.40625 142.723956,15.4583328 143.203125,15.5625 L142.84375,18.984375 C142.322914,18.8593744 141.781253,18.796875 141.21875,18.796875 C139.749993,18.796875 138.5599,19.2760369 137.648438,20.234375 C136.736975,21.1927131 136.28125,22.4374923 136.28125,23.96875 L136.28125,33 L132.609375,33 L132.609375,15.71875 L135.484375,15.71875 L135.96875,18.765625 L136.15625,18.765625 C136.72917,17.7343698 137.476558,16.9166697 138.398438,16.3125 C139.320317,15.7083303 140.312495,15.40625 141.375,15.40625 Z M153.3125,33.3125 C150.624987,33.3125 148.523445,32.5286537 147.007812,30.9609375 C145.49218,29.3932213 144.734375,27.2343888 144.734375,24.484375 C144.734375,21.6614442 145.437493,19.4427164 146.84375,17.828125 C148.250007,16.2135336 150.182279,15.40625 152.640625,15.40625 C154.921886,15.40625 156.723952,16.0989514 158.046875,17.484375 C159.369798,18.8697986 160.03125,20.7760295 160.03125,23.203125 L160.03125,25.1875 L148.515625,25.1875 C148.567709,26.8645917 149.020829,28.1536413 149.875,29.0546875 C150.729171,29.9557337 151.932284,30.40625 153.484375,30.40625 C154.505213,30.40625 155.455725,30.3098968 156.335938,30.1171875 C157.21615,29.9244782 158.161453,29.6041689 159.171875,29.15625 L159.171875,32.140625 C158.276037,32.5677105 157.369796,32.8697908 156.453125,33.046875 C155.536454,33.2239592 154.489589,33.3125 153.3125,33.3125 Z M152.640625,18.1875 C151.473952,18.1875 150.539066,18.557288 149.835938,19.296875 C149.132809,20.036462 148.713542,21.1145762 148.578125,22.53125 L156.421875,22.53125 C156.401042,21.1041595 156.057295,20.0234412 155.390625,19.2890625 C154.723955,18.5546838 153.807298,18.1875 152.640625,18.1875 Z M187.84375,24.328125 C187.84375,27.1510558 187.119799,29.3541587 185.671875,30.9375 C184.223951,32.5208413 182.208346,33.3125 179.625,33.3125 C178.010409,33.3125 176.58334,32.9479203 175.34375,32.21875 C174.10416,31.4895797 173.151045,30.4427152 172.484375,29.078125 C171.817705,27.7135348 171.484375,26.1302173 171.484375,24.328125 C171.484375,21.5260277 172.203118,19.3385495 173.640625,17.765625 C175.078132,16.1927005 177.104154,15.40625 179.71875,15.40625 C182.218762,15.40625 184.197909,16.2109295 185.65625,17.8203125 C187.114591,19.4296955 187.84375,21.5989447 187.84375,24.328125 Z M175.265625,24.328125 C175.265625,28.3177283 176.739569,30.3125 179.6875,30.3125 C182.604181,30.3125 184.0625,28.3177283 184.0625,24.328125 C184.0625,20.3801886 182.593765,18.40625 179.65625,18.40625 C178.114576,18.40625 176.997399,18.9166616 176.304688,19.9375 C175.611976,20.9583384 175.265625,22.4218655 175.265625,24.328125 Z M200.734375,18.5 L196.515625,18.5 L196.515625,33 L192.828125,33 L192.828125,18.5 L189.984375,18.5 L189.984375,16.78125 L192.828125,15.65625 L192.828125,14.53125 C192.828125,12.4895731 193.307287,10.9765674 194.265625,9.9921875 C195.223963,9.00780758 196.68749,8.515625 198.65625,8.515625 C199.947923,8.515625 201.218744,8.72916453 202.46875,9.15625 L201.5,11.9375 C200.593745,11.6458319 199.729171,11.5 198.90625,11.5 C198.072913,11.5 197.466148,11.7578099 197.085938,12.2734375 C196.705727,12.7890651 196.515625,13.5624948 196.515625,14.59375 L196.515625,15.71875 L200.734375,15.71875 L200.734375,18.5 Z M226.546875,33 L222.859375,33 L222.859375,22.34375 C222.859375,21.0208267 222.609377,20.0338574 222.109375,19.3828125 C221.609373,18.7317676 220.82813,18.40625 219.765625,18.40625 C218.348951,18.40625 217.309899,18.8671829 216.648438,19.7890625 C215.986976,20.7109421 215.65625,22.2447809 215.65625,24.390625 L215.65625,33 L211.984375,33 L211.984375,15.71875 L214.859375,15.71875 L215.375,17.984375 L215.5625,17.984375 C216.041669,17.1614542 216.736975,16.5260439 217.648438,16.078125 C218.5599,15.6302061 219.562495,15.40625 220.65625,15.40625 C223.312513,15.40625 225.072912,16.3124909 225.9375,18.125 L226.1875,18.125 C226.697919,17.2708291 227.416662,16.6041691 228.34375,16.125 C229.270838,15.6458309 230.333327,15.40625 231.53125,15.40625 C233.59376,15.40625 235.096349,15.9270781 236.039062,16.96875 C236.981776,18.0104219 237.453125,19.5989477 237.453125,21.734375 L237.453125,33 L233.78125,33 L233.78125,22.34375 C233.78125,21.0208267 233.528648,20.0338574 233.023438,19.3828125 C232.518227,18.7317676 231.73438,18.40625 230.671875,18.40625 C229.244785,18.40625 228.200524,18.851558 227.539062,19.7421875 C226.877601,20.632817 226.546875,21.9999908 226.546875,23.84375 L226.546875,33 Z M257.90625,24.328125 C257.90625,27.1510558 257.182299,29.3541587 255.734375,30.9375 C254.286451,32.5208413 252.270846,33.3125 249.6875,33.3125 C248.072909,33.3125 246.64584,32.9479203 245.40625,32.21875 C244.16666,31.4895797 243.213545,30.4427152 242.546875,29.078125 C241.880205,27.7135348 241.546875,26.1302173 241.546875,24.328125 C241.546875,21.5260277 242.265618,19.3385495 243.703125,17.765625 C245.140632,16.1927005 247.166654,15.40625 249.78125,15.40625 C252.281262,15.40625 254.260409,16.2109295 255.71875,17.8203125 C257.177091,19.4296955 257.90625,21.5989447 257.90625,24.328125 Z M245.328125,24.328125 C245.328125,28.3177283 246.802069,30.3125 249.75,30.3125 C252.666681,30.3125 254.125,28.3177283 254.125,24.328125 C254.125,20.3801886 252.656265,18.40625 249.71875,18.40625 C248.177076,18.40625 247.059899,18.9166616 246.367188,19.9375 C245.674476,20.9583384 245.328125,22.4218655 245.328125,24.328125 Z M277.328125,33 L273.640625,33 L273.640625,22.375 C273.640625,21.04166 273.372399,20.0468783 272.835938,19.390625 C272.299476,18.7343717 271.447923,18.40625 270.28125,18.40625 C268.729159,18.40625 267.593754,18.8645787 266.875,19.78125 C266.156246,20.6979213 265.796875,22.2343642 265.796875,24.390625 L265.796875,33 L262.125,33 L262.125,15.71875 L265,15.71875 L265.515625,17.984375 L265.703125,17.984375 C266.223961,17.1614542 266.963537,16.5260439 267.921875,16.078125 C268.880213,15.6302061 269.942702,15.40625 271.109375,15.40625 C275.255229,15.40625 277.328125,17.5156039 277.328125,21.734375 L277.328125,33 Z M289.984375,33.3125 C287.296862,33.3125 285.19532,32.5286537 283.679688,30.9609375 C282.164055,29.3932213 281.40625,27.2343888 281.40625,24.484375 C281.40625,21.6614442 282.109368,19.4427164 283.515625,17.828125 C284.921882,16.2135336 286.854154,15.40625 289.3125,15.40625 C291.593761,15.40625 293.395827,16.0989514 294.71875,17.484375 C296.041673,18.8697986 296.703125,20.7760295 296.703125,23.203125 L296.703125,25.1875 L285.1875,25.1875 C285.239584,26.8645917 285.692704,28.1536413 286.546875,29.0546875 C287.401046,29.9557337 288.604159,30.40625 290.15625,30.40625 C291.177088,30.40625 292.1276,30.3098968 293.007812,30.1171875 C293.888025,29.9244782 294.833328,29.6041689 295.84375,29.15625 L295.84375,32.140625 C294.947912,32.5677105 294.041671,32.8697908 293.125,33.046875 C292.208329,33.2239592 291.161464,33.3125 289.984375,33.3125 Z M289.3125,18.1875 C288.145827,18.1875 287.210941,18.557288 286.507812,19.296875 C285.804684,20.036462 285.385417,21.1145762 285.25,22.53125 L293.09375,22.53125 C293.072917,21.1041595 292.72917,20.0234412 292.0625,19.2890625 C291.39583,18.5546838 290.479173,18.1875 289.3125,18.1875 Z M297.609375,15.71875 L301.609375,15.71875 L305.125,25.515625 C305.656253,26.9114653 306.010416,28.2239522 306.1875,29.453125 L306.3125,29.453125 C306.40625,28.8802055 306.578124,28.1848999 306.828125,27.3671875 C307.078126,26.5494751 308.40103,22.6667014 310.796875,15.71875 L314.765625,15.71875 L307.375,35.296875 C306.031243,38.890643 303.791682,40.6875 300.65625,40.6875 C299.843746,40.6875 299.052087,40.5989592 298.28125,40.421875 L298.28125,37.515625 C298.833336,37.6406256 299.463538,37.703125 300.171875,37.703125 C301.942717,37.703125 303.187496,36.6770936 303.90625,34.625 L304.546875,33 L297.609375,15.71875 Z" id="The-future-of-money"></path>
            </g>
        </g>
    </g>
</svg>