<svg viewBox="0 0 480 288" xmlns="http://www.w3.org/2000/svg">
  <rect x="0" y="0" width="96" height="288" style="fill: rgb(9, 249, 17);"/>
  <rect x="96" y="0" width="96" height="288" style="fill: rgb(2, 157, 116);"/>
  <rect x="192" y="0" width="96" height="288" style="fill: rgb(227, 91, 216);"/>
  <rect x="288" y="0" width="96" height="288" style="fill: rgb(65, 86, 197);"/>
  <rect x="384" y="0" width="96" height="288" style="fill: rgb(99, 86, 136);"/>
  <path d="M461.795, 270.167C458.217, 270.167 455.323, 268.484 453.112, 265.116C450.901, 261.749 449.795, 257.355 449.795, 251.933C449.795, 246.464 450.909, 242.066 453.135, 238.737C455.362, 235.409 458.295, 233.745 461.936, 233.745C465.577, 233.745 468.51, 235.409 470.737, 238.737C472.963, 242.066 474.077, 246.441 474.077, 251.862C474.077, 257.425 472.963, 261.866 470.737, 265.187C468.51, 268.507 465.53, 270.167 461.795, 270.167ZM432.873, 270.167C427.483, 270.167 423.319, 268.585 420.381, 265.421C417.444, 262.257 415.975, 257.777 415.975, 251.98C415.975, 246.198 417.471, 241.714 420.463, 238.527C423.455, 235.339 427.67, 233.745 433.108, 233.745C436.217, 233.745 439.858, 234.253 444.03, 235.269L444.03, 239.886C439.28, 238.245 435.616, 237.425 433.038, 237.425C429.272, 237.425 426.358, 238.698 424.295, 241.245C422.233, 243.792 421.202, 247.386 421.202, 252.027C421.202, 256.448 422.303, 259.937 424.506, 262.491C426.709, 265.046 429.717, 266.323 433.53, 266.323C436.811, 266.323 440.327, 265.316 444.077, 263.3L444.077, 267.519C440.655, 269.284 436.92, 270.167 432.873, 270.167ZM401.975, 258.894L410.069, 258.894L410.069, 261.206L401.975, 261.206L401.975, 269.3L399.663, 269.3L399.663, 261.206L391.569, 261.206L391.569, 258.894L399.663, 258.894L399.663, 250.8L401.975, 250.8L401.975, 258.894ZM461.842, 266.698C466.733, 266.698 469.178, 261.73 469.178, 251.792C469.178, 242.073 466.764, 237.214 461.936, 237.214C457.123, 237.214 454.717, 242.12 454.717, 251.933C454.717, 261.777 457.092, 266.698 461.842, 266.698Z" style="fill: white;"/>
</svg>
