<svg xmlns="http://www.w3.org/2000/svg" xmlns:xlink="http://www.w3.org/1999/xlink" version="1.1" x="0px" y="0px" viewBox="206 206 100 100" enable-background="new 206 206 100 100" xml:space="preserve"><polyline fill="none" stroke="#000000" stroke-width="3" stroke-linecap="round" stroke-linejoin="round" stroke-miterlimit="10" points="  168.15,427.882 168.16,427.882 194.88,427.882 "></polyline><line fill="none" stroke="#000000" stroke-width="3" stroke-linecap="round" stroke-linejoin="round" stroke-miterlimit="10" x1="343.85" y1="427.882" x2="317.118" y2="427.882"></line><g><path d="M267.664,215.499h-15.918c-0.08,0-0.152,0.033-0.204,0.085l-7.409,7.409c-0.027,0.027-0.048,0.059-0.063,0.094   c0,0.001-0.001,0.003-0.001,0.004c-0.013,0.032-0.021,0.067-0.021,0.104v7.674h-4.528v-15.085c0-0.158-0.128-0.286-0.287-0.286   h-15.918c-0.079,0-0.151,0.032-0.203,0.084l0,0l-7.409,7.41c-0.027,0.027-0.048,0.059-0.063,0.094   c-0.001,0.001-0.001,0.003-0.001,0.004c-0.013,0.033-0.02,0.068-0.02,0.104v15.919c0,0.158,0.128,0.286,0.286,0.286h15.919   c0.037,0,0.072-0.008,0.104-0.02c0.001-0.001,0.002-0.001,0.004-0.001c0.036-0.015,0.067-0.036,0.094-0.063l7.409-7.409   c0.052-0.052,0.085-0.124,0.085-0.204v-0.262h4.528v7.673c0,0.158,0.128,0.286,0.287,0.286h7.674v4.647h-0.264   c-0.08,0-0.151,0.033-0.204,0.085l-7.409,7.409c-0.027,0.026-0.048,0.059-0.063,0.094c-0.001,0.001-0.001,0.003-0.001,0.004   c-0.013,0.032-0.021,0.068-0.021,0.104v8.222h-4.528v-15.633c0-0.158-0.128-0.286-0.287-0.286h-15.919   c-0.079,0-0.151,0.032-0.203,0.084l0,0l-7.409,7.409c-0.027,0.027-0.048,0.059-0.063,0.094c-0.001,0.001-0.001,0.003-0.001,0.004   c-0.013,0.032-0.02,0.067-0.02,0.104v15.918c0,0.158,0.128,0.287,0.286,0.287h7.672v4.647h-0.262c-0.079,0-0.151,0.032-0.203,0.084   l0,0l-7.41,7.41c-0.027,0.026-0.048,0.058-0.063,0.094c0,0.001,0,0.003-0.001,0.004c-0.013,0.032-0.02,0.067-0.02,0.104v15.919   c0,0.158,0.128,0.286,0.286,0.286h15.919c0.037,0,0.072-0.008,0.104-0.021c0.001,0,0.003,0,0.004-0.001   c0.036-0.015,0.067-0.036,0.094-0.063l7.409-7.409c0.052-0.052,0.085-0.123,0.085-0.203v-15.919c0-0.158-0.128-0.286-0.287-0.286   h-15.083v-4.647h7.673c0.037,0,0.072-0.008,0.104-0.021c0.001-0.001,0.003-0.001,0.004-0.002c0.036-0.014,0.067-0.035,0.094-0.062   l7.326-7.327h4.696v7.124c0,0.158,0.128,0.287,0.286,0.287h15.919c0.037,0,0.072-0.008,0.104-0.021   c0.001-0.001,0.003-0.001,0.004-0.002c0.036-0.014,0.067-0.035,0.094-0.062l7.408-7.409c0.053-0.052,0.086-0.124,0.086-0.204   v-15.919c0-0.158-0.128-0.286-0.286-0.286h-15.082v-4.647h7.672c0.037,0,0.072-0.008,0.104-0.021c0.002,0,0.003,0,0.005-0.001   c0.035-0.014,0.066-0.036,0.094-0.062l7.407-7.409c0.053-0.052,0.086-0.125,0.086-0.205v-15.919   C267.951,215.627,267.823,215.499,267.664,215.499z M231.538,238.829h-15.346v-15.347h15.346V238.829z M231.705,222.909h-15.109   l6.838-6.838h15.109L231.705,222.909z M238.948,231.586l-6.838,6.838v-15.109l6.838-6.838V231.586z M231.538,295.927h-15.346   v-15.347h15.346V295.927z M238.948,288.684l-6.838,6.839v-15.11l6.838-6.838V288.684z M238.543,273.171l-6.838,6.838h-15.109   l6.838-6.838h0.428c0,0,0.001,0,0.002,0c0,0,0.001,0,0.001,0H238.543z M231.538,267.378h-15.346v-15.346h15.346V267.378z    M231.705,251.459h-15.109l6.838-6.838h15.109L231.705,251.459z M238.948,260.135l-6.838,6.839v-15.11l6.838-6.838V260.135z    M259.968,267.378h-15.346v-15.346h15.346V267.378z M267.378,260.135l-6.838,6.839v-15.11l6.838-6.838V260.135z M266.974,244.621   l-6.838,6.838h-15.109l6.838-6.838H266.974z M259.968,238.829H252.3c-0.001,0-0.002,0-0.004,0s-0.002,0-0.004,0h-7.67v-15.347   h15.346V238.829L259.968,238.829z M260.136,222.909h-15.109l6.838-6.838h15.109L260.136,222.909z M267.378,231.585l-6.838,6.838   v-15.109l6.838-6.838V231.585z"></path><path d="M288.685,239.401c0.037,0,0.072-0.008,0.104-0.02c0.001-0.001,0.003-0.001,0.004-0.001   c0.035-0.015,0.067-0.036,0.094-0.063l7.41-7.41l0,0c0.026-0.027,0.048-0.059,0.063-0.094c0,0,0,0,0-0.001   c0.014-0.033,0.021-0.069,0.021-0.107v-15.919c0-0.158-0.128-0.287-0.286-0.287h-15.919c-0.079,0-0.151,0.033-0.203,0.085   l-7.409,7.409c-0.026,0.027-0.048,0.059-0.063,0.094c-0.001,0.002-0.001,0.003-0.001,0.004c-0.013,0.033-0.021,0.068-0.021,0.104   v15.919c0,0.159,0.128,0.287,0.286,0.287h7.673v4.647h-0.263c-0.079,0-0.151,0.033-0.203,0.085l-7.409,7.41   c-0.026,0.026-0.048,0.058-0.063,0.094c0,0.001-0.001,0.003-0.001,0.004c-0.013,0.032-0.021,0.067-0.021,0.104v15.919   c0,0.158,0.128,0.286,0.286,0.286h7.674v4.647h-0.263c-0.08,0-0.151,0.033-0.204,0.085l-7.409,7.41   c-0.026,0.026-0.048,0.058-0.063,0.093c0,0.002,0,0.003-0.001,0.005c-0.013,0.032-0.021,0.067-0.021,0.104v15.919   c0,0.157,0.129,0.286,0.286,0.286h15.919c0.037,0,0.072-0.008,0.104-0.021c0.002,0,0.003-0.001,0.005-0.001   c0.035-0.015,0.067-0.036,0.093-0.063l7.41-7.41l0,0c0.027-0.026,0.048-0.059,0.063-0.094c0-0.001,0.001-0.001,0.001-0.002   c0.013-0.033,0.021-0.069,0.021-0.106v-15.92c0-0.157-0.128-0.286-0.286-0.286h-15.083v-4.647h7.673   c0.037,0,0.072-0.008,0.104-0.02c0.001-0.001,0.003-0.001,0.004-0.002c0.035-0.015,0.067-0.036,0.094-0.063l7.41-7.41l0,0   c0.026-0.026,0.048-0.059,0.063-0.094c0-0.001,0-0.001,0-0.002c0.014-0.033,0.021-0.068,0.021-0.106v-15.919   c0-0.158-0.128-0.287-0.286-0.287h-15.083v-4.647L288.685,239.401L288.685,239.401z M295.809,231.586l-6.838,6.838v-15.109   l6.838-6.838V231.586z M280.295,216.072h15.109l-6.838,6.838h-15.109L280.295,216.072z M288.399,295.927h-15.347v-15.347h15.347   V295.927z M295.809,288.685l-6.838,6.838v-15.11l6.838-6.837V288.685z M295.405,273.171l-6.838,6.838h-15.109l6.838-6.838h0.428   c0.001,0,0.002,0,0.003,0h0.001H295.405z M288.399,267.378h-15.347v-15.346h15.347V267.378z M295.809,260.135l-6.838,6.838v-15.11   l6.838-6.838V260.135z M295.405,244.621l-6.838,6.838h-15.109l6.838-6.838H295.405z M280.729,238.829c-0.001,0-0.002,0-0.003,0   c-0.002,0-0.003,0-0.004,0h-7.67v-15.347h15.347v15.347H280.729z"></path><path d="M267.664,272.597h-15.918c-0.08,0-0.152,0.033-0.204,0.086l-7.409,7.408c-0.027,0.027-0.048,0.059-0.063,0.094   c0,0.002,0,0.003-0.001,0.005c-0.013,0.032-0.02,0.067-0.02,0.104v15.919c0,0.157,0.128,0.286,0.286,0.286h15.918   c0.037,0,0.072-0.008,0.104-0.021c0.002,0,0.003-0.001,0.005-0.001c0.035-0.015,0.067-0.036,0.094-0.063l7.408-7.408   c0.053-0.052,0.086-0.124,0.086-0.204v-15.919C267.951,272.726,267.823,272.597,267.664,272.597z M259.968,295.927h-15.346v-15.347   h15.346V295.927z M260.136,280.009h-15.109l6.838-6.838h15.109L260.136,280.009z M267.378,288.684l-6.838,6.839v-15.11l6.838-6.838   V288.684z"></path></g></svg>